<?xml version="1.0" standalone="no"?>
<!DOCTYPE svg PUBLIC "-//W3C//DTD SVG 20010904//EN"
 "http://www.w3.org/TR/2001/REC-SVG-20010904/DTD/svg10.dtd">
<svg version="1.0" xmlns="http://www.w3.org/2000/svg"
 width="300.000000pt" height="300.000000pt" viewBox="0 0 300.000000 300.000000"
 preserveAspectRatio="xMidYMid meet">
<metadata>
Created by potrace 1.10, written by Peter Selinger 2001-2011
</metadata>
<g transform="translate(0.000000,300.000000) scale(0.100000,-0.100000)"
fill="#ff8000" stroke="none">
<path d="M1485 2654 c-18 -13 -20 -28 -22 -127 -1 -62 -2 -124 -2 -139 -1 -32
-13 -34 -76 -17 -32 9 -67 38 -167 140 -183 186 -188 184 -188 -93 0 -309 4
-305 -370 -418 -58 -18 -113 -39 -122 -48 -27 -23 -25 -153 4 -229 28 -75 112
-162 183 -188 28 -10 54 -22 58 -25 5 -4 -10 -26 -32 -48 -85 -84 -108 -219
-53 -322 52 -99 147 -119 199 -41 21 31 23 45 23 163 0 130 0 130 28 157 43
39 106 81 130 86 44 8 30 -14 -39 -60 -81 -56 -99 -84 -99 -157 0 -60 17 -101
43 -106 15 -3 78 35 134 82 18 15 141 111 284 221 102 77 179 145 179 157 0 5
-8 17 -17 26 -15 15 -58 18 -392 22 -207 3 -383 9 -392 13 -20 10 -49 60 -49
84 0 37 50 65 264 149 99 39 100 39 141 104 51 78 101 130 125 130 10 0 35
-17 56 -39 258 -257 524 -530 524 -539 0 -6 -32 -39 -72 -74 -192 -170 -277
-252 -286 -276 -17 -45 -54 -237 -51 -257 10 -48 54 -43 116 14 62 56 351 306
461 398 47 40 87 71 90 69 12 -13 -16 -48 -85 -108 -43 -36 -89 -76 -103 -88
-68 -61 -381 -331 -434 -376 -34 -28 -74 -63 -91 -78 -63 -59 -95 -74 -95 -44
0 4 17 27 38 49 l37 42 3 168 c4 212 6 209 -128 209 -130 0 -122 26 -118 -382
3 -327 3 -334 27 -378 63 -121 194 -191 327 -175 97 12 157 49 334 209 19 18
85 76 145 131 61 54 148 133 195 175 47 43 133 121 193 175 64 58 110 108 114
123 6 27 -56 156 -353 732 -52 102 -121 234 -152 295 -56 110 -89 155 -114
155 -9 0 -9 -3 -2 -8 6 -4 80 -142 164 -307 84 -165 181 -354 215 -420 47 -90
191 -371 223 -436 1 -3 -80 -80 -180 -170 -101 -90 -278 -250 -395 -356 -116
-105 -228 -203 -250 -217 -127 -84 -310 -61 -403 51 -55 68 -60 103 -60 455
l0 318 95 0 95 0 0 -169 0 -169 -40 -35 -41 -35 3 -65 3 -66 330 286 c182 157
378 326 437 377 l107 91 1 63 0 64 -47 -40 c-27 -22 -181 -155 -343 -296 -162
-140 -296 -254 -297 -252 -2 2 10 65 27 140 16 75 30 138 30 140 0 2 86 79
190 172 105 92 189 171 188 175 -8 18 -613 629 -624 629 -22 0 -131 -115 -157
-167 l-26 -51 -162 -64 c-182 -71 -219 -97 -219 -155 0 -19 9 -48 21 -64 42
-59 42 -59 459 -59 218 0 380 -4 378 -9 -3 -10 -570 -451 -579 -451 -3 0 -5
37 -4 82 l2 83 126 85 126 85 -85 3 -85 3 -84 -61 -84 -60 -3 -149 c-3 -170
-12 -191 -75 -191 -98 0 -149 174 -87 298 21 43 39 61 105 105 l80 52 -74 6
c-119 10 -204 67 -259 172 -16 31 -23 65 -26 132 l-4 90 182 55 c101 30 199
64 219 75 19 11 53 45 74 75 l38 54 -1 211 c0 115 -1 213 0 217 0 4 62 -56
138 -133 130 -132 140 -140 195 -154 32 -8 68 -21 80 -30 l22 -14 -4 181 c-2
99 1 179 5 177 5 -2 64 -61 132 -130 l122 -126 0 -234 1 -234 24 30 c45 54 68
131 69 227 1 82 -5 110 -21 94 -4 -3 -6 -25 -5 -49 3 -49 -14 -147 -27 -160
-6 -6 -10 60 -11 159 0 126 -4 174 -15 189 -24 35 -219 232 -240 243 -15 7
-26 6 -40 -4z"/>
<path d="M1253 2065 c-34 -15 -73 -67 -73 -98 0 -34 30 -82 61 -101 59 -35
136 -1 159 70 15 43 -9 95 -55 124 -38 23 -49 24 -92 5z m99 -43 c10 -9 20
-31 24 -49 5 -27 1 -37 -24 -63 -51 -50 -121 -32 -138 37 -19 75 82 130 138
75z"/>
<path d="M1402 638 c-43 -22 -41 -100 4 -120 34 -16 75 0 92 35 12 24 11 32
-5 60 -21 35 -52 44 -91 25z m63 -58 c0 -20 -6 -26 -27 -28 -25 -3 -28 0 -28
28 0 28 3 31 28 28 21 -2 27 -8 27 -28z"/>
</g>
</svg>
